<svg xmlns="http://www.w3.org/2000/svg" viewBox="0 0 400 120" width="400" height="120">
  <!-- Rosemary sprig -->
  <g fill="none" stroke="#5E7A62" stroke-width="1.5" stroke-linecap="round" stroke-linejoin="round" opacity="0.7">
    <!-- Main stem -->
    <path d="M100 115 Q105 85, 108 55 Q110 35, 106 15"/>
    <!-- Needle-like leaves (pairs along stem) -->
    <path d="M108 55 Q118 48, 122 42" stroke-width="1.2"/>
    <path d="M108 55 Q98 48, 94 42" stroke-width="1.2"/>
    <path d="M109 45 Q119 38, 123 32" stroke-width="1.2"/>
    <path d="M109 45 Q99 38, 95 32" stroke-width="1.2"/>
    <path d="M108 35 Q117 28, 120 23" stroke-width="1.2"/>
    <path d="M108 35 Q99 28, 96 23" stroke-width="1.2"/>
    <path d="M107 25 Q115 19, 118 14" stroke-width="1.2"/>
    <path d="M107 25 Q99 19, 96 14" stroke-width="1.2"/>
    <path d="M107 65 Q116 58, 120 52" stroke-width="1.2"/>
    <path d="M107 65 Q98 58, 94 52" stroke-width="1.2"/>
    <path d="M105 75 Q114 69, 118 63" stroke-width="1.2"/>
    <path d="M105 75 Q96 69, 92 63" stroke-width="1.2"/>
  </g>

  <!-- Basil plant (center) -->
  <g fill="none" stroke="#5E7A62" stroke-width="1.5" stroke-linecap="round" stroke-linejoin="round" opacity="0.7">
    <!-- Main stem -->
    <path d="M195 115 Q197 80, 198 50 Q199 35, 197 20"/>
    <!-- Broad basil leaves -->
    <path d="M198 50 Q215 42, 220 30 Q212 38, 205 42 Q198 46, 198 50" fill="#5E7A62" fill-opacity="0.15"/>
    <path d="M198 50 Q181 42, 176 30 Q184 38, 191 42 Q198 46, 198 50" fill="#5E7A62" fill-opacity="0.15"/>
    <path d="M197 35 Q212 26, 216 16 Q208 22, 203 27 Q198 32, 197 35" fill="#5E7A62" fill-opacity="0.12"/>
    <path d="M197 35 Q182 26, 178 16 Q186 22, 191 27 Q196 32, 197 35" fill="#5E7A62" fill-opacity="0.12"/>
    <path d="M198 65 Q214 58, 218 48 Q210 54, 204 58 Q198 62, 198 65" fill="#5E7A62" fill-opacity="0.12"/>
    <path d="M198 65 Q182 58, 178 48 Q186 54, 192 58 Q198 62, 198 65" fill="#5E7A62" fill-opacity="0.12"/>
    <!-- Top small leaves -->
    <path d="M197 24 Q206 16, 208 10 Q203 14, 197 24" fill="#5E7A62" fill-opacity="0.1"/>
    <path d="M197 24 Q188 16, 186 10 Q191 14, 197 24" fill="#5E7A62" fill-opacity="0.1"/>
  </g>

  <!-- Thyme sprig -->
  <g fill="none" stroke="#8A7B5E" stroke-width="1.5" stroke-linecap="round" stroke-linejoin="round" opacity="0.6">
    <!-- Main stem -->
    <path d="M275 115 Q278 85, 280 55 Q282 38, 278 22"/>
    <!-- Tiny oval leaves along stem -->
    <path d="M280 55 Q288 50, 290 45 Q285 48, 280 55" fill="#8A7B5E" fill-opacity="0.12"/>
    <path d="M280 55 Q272 50, 270 45 Q275 48, 280 55" fill="#8A7B5E" fill-opacity="0.12"/>
    <path d="M279 42 Q287 37, 289 32 Q284 35, 279 42" fill="#8A7B5E" fill-opacity="0.1"/>
    <path d="M279 42 Q271 37, 269 32 Q274 35, 279 42" fill="#8A7B5E" fill-opacity="0.1"/>
    <path d="M278 30 Q285 25, 287 21 Q282 23, 278 30" fill="#8A7B5E" fill-opacity="0.1"/>
    <path d="M278 30 Q271 25, 269 21 Q274 23, 278 30" fill="#8A7B5E" fill-opacity="0.1"/>
    <path d="M281 68 Q289 63, 291 58 Q286 61, 281 68" fill="#8A7B5E" fill-opacity="0.12"/>
    <path d="M281 68 Q273 63, 271 58 Q276 61, 281 68" fill="#8A7B5E" fill-opacity="0.12"/>
    <path d="M280 80 Q287 76, 289 71 Q284 74, 280 80" fill="#8A7B5E" fill-opacity="0.1"/>
    <path d="M280 80 Q273 76, 271 71 Q276 74, 280 80" fill="#8A7B5E" fill-opacity="0.1"/>
  </g>

  <!-- Small seedling herb on the left -->
  <g fill="none" stroke="#5E7A62" stroke-width="1.2" stroke-linecap="round" opacity="0.5">
    <path d="M60 115 Q62 102, 64 92"/>
    <!-- Two tiny rounded leaves (like young basil) -->
    <path d="M64 92 Q72 84, 74 78 Q69 82, 66 86 Q64 90, 64 92" fill="#5E7A62" fill-opacity="0.15"/>
    <path d="M64 92 Q56 84, 54 78 Q59 82, 62 86 Q64 90, 64 92" fill="#5E7A62" fill-opacity="0.12"/>
  </g>

  <!-- Small sage sprig on the right -->
  <g fill="none" stroke="#8A7B5E" stroke-width="1.2" stroke-linecap="round" opacity="0.5">
    <path d="M330 115 Q333 98, 335 80 Q337 70, 334 60"/>
    <!-- Soft, rounded sage leaves -->
    <path d="M335 80 Q344 74, 346 68 Q340 72, 335 80" fill="#8A7B5E" fill-opacity="0.1"/>
    <path d="M335 80 Q326 74, 324 68 Q330 72, 335 80" fill="#8A7B5E" fill-opacity="0.1"/>
    <path d="M334 68 Q342 63, 344 58 Q339 61, 334 68" fill="#8A7B5E" fill-opacity="0.1"/>
    <path d="M334 68 Q326 63, 324 58 Q329 61, 334 68" fill="#8A7B5E" fill-opacity="0.1"/>
  </g>
</svg>
